# xmcd
#
# Track frame offsets: 
#        182
#        23427
#        42635
#        67487
#        92080
#        112935
#        143587
#        158245
#        176425
#        201382
#        219587
#        243227
#        267507
#        290922
#        326750
#
# Disc length: 4592 seconds
#
# Revision: 17
# Processed by: cddbd v1.5.2PL0 Copyright (c) Steve Scherf et al.
# Submitted via: ExactAudioCopy v0.95b4
#
DISCID=e811ee0f
DTITLE=Béla Fleck and The Flecktones - Left of Cool
DYEAR=1998
DGENRE=Jazz
TTITLE0=Throwdown at the Hoedown
TTITLE1=Communication
TTITLE2=Big Country
TTITLE3=Sojourn of Arjuna
TTITLE4=Let Me Be the One
TTITLE5=Trane to Conamarra
TTITLE6=Almost 12
TTITLE7=Step Quiet
TTITLE8=Oddity
TTITLE9=Sleeping Dogs Lie
TTITLE10=Trouble and Strife
TTITLE11=Slow Walker
TTITLE12=shanti
TTITLE13=The Big Blink
TTITLE14=Prelude to Silence
EXTD=
EXTT0=
EXTT1=
EXTT2=
EXTT3=
EXTT4=
EXTT5=
EXTT6=
EXTT7=
EXTT8=
EXTT9=
EXTT10=
EXTT11=
EXTT12=
EXTT13=
EXTT14=
PLAYORDER=
